<?xml version="1.0" encoding="UTF-8"?>
<svg width="204px" height="40px" viewBox="0 0 204 40" version="1.1" xmlns="http://www.w3.org/2000/svg" xmlns:xlink="http://www.w3.org/1999/xlink">
    <!-- Generator: Sketch 64 (93537) - https://sketch.com -->
    <title>Icon-Desktop/Logo-Default-Navy</title>
    <desc>Created with Sketch.</desc>
    <defs>
        <polygon id="path-1" points="0.149475 0.449822881 16.076475 0.449822881 16.076475 22.4350564 0.149475 22.4350564"></polygon>
        <polygon id="path-3" points="0.02895 0.435539229 11.16045 0.435539229 11.16045 27.6699029 0.02895 27.6699029"></polygon>
        <polygon id="path-5" points="0.669075 0.435539229 11.804325 0.435539229 11.804325 27.6699029 0.669075 27.6699029"></polygon>
    </defs>
    <g id="Icon-Desktop/Logo-Default-Navy" stroke="none" stroke-width="1" fill="none" fill-rule="evenodd">
        <g id="Icon-Desktop/Logo-Default">
            <polygon id="Fill-1" fill="#002185" points="61 34 67 34 67 6 61 6"></polygon>
            <g id="Group-4" transform="translate(90.000000, 11.861454)">
                <mask id="mask-2" fill="white">
                    <use xlink:href="#path-1"></use>
                </mask>
                <g id="Clip-3"></g>
                <path d="M1.317225,16.28299 C2.523225,17.013625 5.026725,17.8310089 6.968475,17.8310089 C8.956725,17.8310089 9.776475,17.1871228 9.776475,16.1109879 C9.776475,14.99447 9.130725,14.4777158 6.710475,13.6565928 C2.307975,12.2372015 0.624975,9.82767646 0.669225,7.37851614 C0.669225,3.41947652 4.035975,0.449822881 9.254475,0.449822881 C11.715225,0.449822881 13.872975,1.05033456 15.169725,1.69721202 L14.048475,6.17375361 C13.097475,5.69887825 11.241975,5.01012202 9.471975,5.01012202 C7.872225,5.01012202 6.968475,5.65625164 6.968475,6.68527289 C6.968475,7.72027683 7.788975,8.23628313 10.379475,9.1404159 C14.392725,10.4715626 16.032975,12.5393269 16.076475,15.5964773 C16.076475,19.5547691 13.007475,22.4354303 6.968475,22.4354303 C4.207725,22.4354303 1.749225,21.7907964 0.149475,20.9292902 L1.317225,16.28299 Z" id="Fill-2" fill="#002185" mask="url(#mask-2)"></path>
            </g>
            <g id="Group-7" transform="translate(108.000000, 6.626607)">
                <mask id="mask-4" fill="white">
                    <use xlink:href="#path-3"></use>
                </mask>
                <g id="Clip-6"></g>
                <path d="M0.02895,2.19893466 L6.45945,0.435539229 L6.45945,6.15647861 L11.16045,6.15647861 L11.16045,10.9770244 L6.45945,10.9770244 L6.45945,18.634857 C6.45945,21.1745054 7.1067,22.3329021 9.0447,22.3329021 C9.95445,22.3329021 10.38645,22.2932669 10.9887,22.1646392 L11.03295,27.1093256 C10.21245,27.4129467 8.61645,27.670202 6.80445,27.670202 C4.68645,27.670202 2.9187,26.939567 1.84395,25.8604408 C0.6327,24.616043 0.02895,22.5931488 0.02895,19.6264865 L0.02895,2.19893466 Z" id="Fill-5" fill="#002185" mask="url(#mask-4)"></path>
            </g>
            <path d="M139.15245,28.7490685 C139.15245,30.7241013 139.23945,32.6602467 139.4997,33.8246261 L133.5852,33.8246261 L133.19745,31.7172264 L133.06695,31.7172264 C131.6877,33.3923773 129.52545,34.2965101 127.02495,34.2965101 C122.7507,34.2965101 120.20595,31.1952375 120.20595,27.8449357 C120.20595,22.3790081 125.1207,19.7952375 132.59145,19.7952375 L132.59145,19.53873 C132.59145,18.4214642 131.98845,16.8300708 128.7522,16.8300708 C126.5937,16.8300708 124.30395,17.559958 122.9247,18.3788376 L121.71645,14.2044214 C123.18495,13.389281 126.0762,12.3116505 129.91395,12.3116505 C136.94895,12.3116505 139.15245,16.4404487 139.15245,21.3888743 L139.15245,28.7490685 Z M132.8052,23.8851483 C129.35445,23.8851483 126.67995,24.7002886 126.67995,27.1980583 C126.67995,28.8747048 127.8012,29.6928365 129.26745,29.6928365 C130.86045,29.6928365 132.2472,28.6159538 132.67845,27.2840593 C132.76545,26.9378116 132.8052,26.5519286 132.8052,26.1652978 L132.8052,23.8851483 Z" id="Fill-8" fill="#002185"></path>
            <path d="M141.62145,19.4939347 C141.62145,16.8712766 141.52995,14.6801194 141.4482,12.7828615 L147.74895,12.7828615 L148.05495,15.7083928 L148.1817,15.7083928 C148.9182,14.2059919 149.9862,12.3117253 153.52545,12.3117253 C157.8387,12.3117253 161.07645,15.1938822 161.07645,21.3889491 L161.0772,33.8247009 L154.5162,33.8247009 L154.5162,22.1637064 C154.5162,19.4520559 153.56895,17.6041551 151.1922,17.6041551 C149.3772,17.6041551 148.87395,18.8515442 148.39245,20.0548111 C148.2252,20.4848163 148.17795,21.0890672 148.17795,21.6895789 L148.17795,33.8247009 L141.62145,33.8247009 L141.62145,19.4939347 Z" id="Fill-10" fill="#002185"></path>
            <path d="M68.690925,19.4939347 C68.690925,16.8712766 68.601675,14.6801194 68.517675,12.7828615 L74.823675,12.7828615 L75.121425,15.7083928 L75.251925,15.7083928 C75.988425,14.2059919 77.051925,12.3117253 80.595675,12.3117253 C84.910425,12.3117253 88.144425,15.1938822 88.144425,21.3889491 L88.144425,33.8247009 L81.584175,33.8247009 L81.584175,22.1637064 C81.584175,19.4520559 80.636175,17.6041551 78.263175,17.6041551 C76.451925,17.6041551 75.938925,18.8515442 75.463425,20.0548111 C75.292425,20.4848163 75.251925,21.0890672 75.251925,21.6895789 L75.251925,33.8247009 L68.690925,33.8247009 L68.690925,19.4939347 Z" id="Fill-12" fill="#002185"></path>
            <g id="Group-16" transform="translate(162.750000, 6.626607)">
                <mask id="mask-6" fill="white">
                    <use xlink:href="#path-5"></use>
                </mask>
                <g id="Clip-15"></g>
                <path d="M0.669075,2.19893466 L7.098075,0.435539229 L7.098075,6.15647861 L11.804325,6.15647861 L11.804325,10.9770244 L7.098075,10.9770244 L7.098075,18.634857 C7.098075,21.1745054 7.747575,22.3329021 9.687825,22.3329021 C10.596825,22.3329021 11.028825,22.2932669 11.634825,22.1646392 L11.675325,27.1093256 C10.854825,27.4129467 9.260325,27.670202 7.443825,27.670202 C5.328825,27.670202 3.559575,26.939567 2.483325,25.8604408 C1.278075,24.616043 0.669075,22.5931488 0.669075,19.6264865 L0.669075,2.19893466 Z" id="Fill-14" fill="#002185" mask="url(#mask-6)"></path>
            </g>
            <path d="M181.1715,25.3473157 C181.3815,28.1023406 184.0635,29.3931042 187.1235,29.3931042 C189.3675,29.3931042 191.18325,29.0879874 192.9495,28.4889714 L193.81275,32.9206429 C191.6565,33.8247756 189.02625,34.2540331 186.174,34.2540331 C179.01075,34.2540331 174.91125,30.1237392 174.91125,23.4956757 C174.91125,18.1651063 178.2795,12.2691734 185.57175,12.2691734 C192.39075,12.2691734 194.9775,17.5601076 194.9775,22.7672842 C194.9775,23.8852978 194.8485,24.873936 194.7675,25.3899423 L181.1715,25.3473157 Z M188.89425,20.8745133 C188.89425,19.3264944 188.202,16.6118525 185.2275,16.6118525 C182.41875,16.6118525 181.29825,19.1492574 181.12575,20.8745133 L188.89425,20.8745133 Z" id="Fill-17" fill="#002185"></path>
            <polygon id="Fill-19" fill="#002185" points="196.88925 33.8246261 203.44275 33.8246261 203.44275 5.87727631 196.88925 5.87727631"></polygon>
            <g id="Group-14" transform="translate(0.000000, 0.643925)">
                <path d="M39.17775,15.1711086 C39.25875,15.1411952 39.34575,15.1090383 39.4335,15.0798727 C39.63675,15.4126594 40.21575,15.0364983 40.2915,15.1052991 C40.1835,15.1576476 39.855,15.3109538 39.7965,15.5540003 C40.73475,15.6527145 41.3565,15.4665035 41.58825,14.92881 C41.5905,14.9385319 41.6055,14.8480438 41.99325,14.847296 C43.2255,14.9131055 44.193,14.1383482 45.321,14.2580018 C45.36225,13.7016124 46.656,13.5236277 47.3895,13.2888074 L47.84625,13.399487 C48.4965,13.0913789 49.1655,12.3502742 50.337,12.659878 C51.4995,12.6568866 53.337,12.2246379 54.09075,12.3016649 C53.84025,12.5267633 53.5125,12.6800695 53.1855,12.8333758 L53.74725,12.8932026 L53.09175,13.1983193 C53.54775,13.3082511 54.459,13.5296103 53.74275,14.0807649 C53.544,14.4920743 52.368,14.1854618 52.80825,14.7298859 C52.1685,14.5997625 52.26225,14.983402 52.01325,15.2062569 C51.375,15.0798727 50.87775,15.5248347 50.36325,15.6616885 C50.11875,15.8830478 50.025,16.2479913 50.69625,16.2569654 C50.559,16.4304631 49.851,16.5441341 49.98,16.8043807 C50.1705,16.8275636 50.3055,16.6518224 50.43375,16.916556 C50.1555,17.2613081 48.9495,17.0721057 49.2075,17.5985817 C49.87875,17.6060601 50.98425,17.4123708 51.6435,17.1050105 L52.01775,17.1431501 C51.59925,17.6621477 50.5275,18.4892535 49.54575,18.9461808 L49.73475,18.9648767 C48.72225,19.5466925 47.76525,19.1346353 46.7535,19.7186946 C46.11225,19.5848321 46.33425,20.2361965 45.53775,19.9639845 C45.789,20.4919562 44.91825,20.8987785 44.2935,21.0834938 C43.91925,21.0423629 43.04475,21.4536723 42.76875,21.7984243 L43.28325,21.6630661 C43.221,21.9076082 43.599,21.9464957 43.34925,22.1693506 C43.242,22.2202034 42.7875,22.1140108 42.9105,22.3735096 L43.6155,22.2613343 C43.3665,22.4864327 42.41775,22.8244542 42.18075,22.6098255 C41.991,22.5903818 41.85675,22.7631317 41.66625,22.7429402 L42.01125,22.9037247 L41.031,23.3636434 C41.12775,23.7487785 41.6235,23.3023209 41.9175,23.2679205 C42.8745,22.9321425 43.82025,22.5926253 44.88075,22.2067423 C44.21325,22.9463514 42.97875,22.8775505 42.2325,23.55135 C41.36175,23.9604159 40.368,24.1047481 39.63075,24.341064 L39.33375,24.3747166 L39.60975,24.0277211 C39.48,24.0022947 39.33,24.0075295 39.17625,24.0419299 C38.5995,24.1660706 37.9395,24.6177631 37.57425,24.8757662 C37.887,25.1577001 38.1645,24.8144437 38.3535,24.8338874 C38.334,24.5175531 38.901,24.57738 39.11775,24.4764222 C39.462,24.6342154 38.83725,24.8189307 38.62125,24.922132 C38.27175,24.7635909 37.9155,25.0380464 37.77525,25.207805 L37.8555,25.2795972 L37.04925,25.4433731 C37.38975,25.6041577 36.66,25.8427171 36.471,25.8202821 C34.78425,26.3961152 33.82575,27.1671333 32.091,27.5500249 C31.49925,27.6105996 31.97775,28.7876922 30.9405,28.3038428 C30.0375,28.8333102 27.9615,29.0501824 27.71925,30.0261073 C26.9325,30.0672383 27.76575,30.222788 27.1425,30.4045119 L26.988,30.2631711 L24.852,31.4761598 C24.61875,31.2645224 24.55875,31.5075689 24.26025,31.5397258 C23.637,31.7221976 23.36025,32.0669496 22.7055,32.3758056 C21.255,33.1602847 19.434,33.9043807 17.92425,34.9356455 C16.6455,35.4232341 15.5115,35.7433075 14.84175,36.4844122 C14.76525,36.4148636 14.4975,36.3251233 14.35575,36.4971254 C14.1375,36.5958397 14.3745,36.8089727 14.61225,37.0250971 C14.3625,37.247952 13.881,37.2591695 13.64325,37.0467843 C13.2345,37.1320375 13.7085,37.5538166 13.227,37.5635384 C13.227,37.5635384 12.8205,37.6465482 12.462,37.9210037 C12.6495,37.9382039 12.543,37.9927959 12.543,37.9927959 L12.48075,38.2358423 L11.59125,38.3293217 L11.64975,38.0862753 C11.45925,38.0683272 11.35125,38.11918 11.247,38.1715285 C11.247,38.1715285 11.39625,38.3472697 11.35125,38.3375479 C11.01675,38.2530425 10.6035,38.3749396 10.4805,38.5282459 C10.34325,38.6972566 10.692,38.8610325 10.28325,38.9395552 C10.04475,38.7324049 9.342,38.840841 9.03225,38.5611506 C8.3565,38.5544201 8.3085,38.3614786 8.103,38.0257006 C8.5995,37.579243 7.6305,37.606165 7.39275,37.3907885 C6.4695,37.6084086 5.9205,37.1140895 5.33025,37.1746641 C5.51775,37.1963514 5.6265,37.1477421 5.73375,37.0931501 L5.874,36.9189045 C5.15325,36.721476 4.31925,36.5741525 4.25925,36.0641288 C4.36425,36.0170152 4.3935,35.8913789 4.20675,35.872683 L4.131,35.8016387 L4.0425,36.1665823 L3.67725,35.6902112 C3.14925,36.2615573 3.126,35.1943965 2.472,35.5025046 C2.96475,35.0552991 1.7025,35.1106389 1.49625,34.7741131 L1.27575,34.87881 C0.39975,34.5370493 0.8475,33.8976502 4.26325641e-14,33.4369837 C0.58425,32.6195998 0.56325,31.556926 1.9515,31.0132498 C3.25575,30.4015206 4.91325,29.9498281 5.76675,29.2281671 C6.42075,28.920059 7.182,28.5648373 7.83675,28.2582249 C8.9625,28.3786263 8.799,27.4864589 9.87975,27.4109276 C10.6695,26.9300695 11.79225,26.2988966 12.94875,26.2974009 C14.1795,25.6116361 15.4665,24.6850682 17.12025,24.2371149 C17.78625,23.4937667 19.6155,23.4975059 20.3145,22.6322606 L20.688,22.6726437 C21.7005,22.09008 22.443,21.418524 23.92875,21.2607308 C24.78225,20.5405655 26.1555,20.4328772 26.98275,19.8316177 C28.5075,19.1174351 30.41175,18.4436355 32.253,18.0121346 C32.3115,17.7660968 32.4465,17.5925991 32.74575,17.5641813 L33.2475,17.8663067 C33.65475,17.7825492 33.3105,17.6195211 33.33975,17.5006153 L32.9655,17.4624757 C35.0565,16.4798203 37.143,15.9024915 39.17775,15.1711086" id="Fill-21" fill="#C40D3C"></path>
                <path d="M43.036875,35.2860063 C42.739875,35.3136762 42.244125,35.7653687 42.148875,35.3787379 L43.127625,34.919567 L42.782625,34.7587825 C42.973125,34.7774784 43.109625,34.6062241 43.296375,34.6256678 C43.477875,34.7849567 44.055375,34.633894 44.440125,34.4551614 L44.440125,34.3235424 L44.030625,34.3915954 C43.912125,34.1448098 44.302875,34.2233325 44.440125,34.1919234 L44.440125,33.8613802 C44.404125,33.8127709 44.378625,33.7566833 44.398875,33.6804041 L43.887375,33.8142666 C43.999125,33.6751692 44.206125,33.52635 44.440125,33.4007137 L44.440125,26.664962 C44.019375,26.7905983 44.030625,26.7748937 43.556625,26.7479717 C43.568625,26.3321753 44.109375,26.3583495 44.440125,26.0472501 L44.440125,26.015841 L42.750375,26.3860194 C42.688125,26.6305615 41.299125,27.1742377 41.409375,27.1218893 C41.332125,27.0515928 40.755375,27.4277539 40.550625,27.0949672 C38.433375,27.871968 36.262125,28.4560273 34.081125,29.4768224 L34.457625,29.5164576 C34.427625,29.6376069 34.771125,29.7998872 34.367625,29.882149 L33.865125,29.5785279 C33.567375,29.6084414 33.427125,29.7841826 33.367875,30.0279769 C31.524375,30.4609735 29.623125,31.1332774 28.098375,31.84746 C27.274875,32.4487195 25.897125,32.5564078 25.045875,33.2750774 C23.565375,33.4336185 22.820625,34.1096615 21.805125,34.6869903 L21.431625,34.6481029 C20.734125,35.5126004 18.907875,35.5058699 18.236625,36.2514616 C18.152625,36.2738966 18.071625,36.3030622 17.988375,36.3292364 L39.580875,36.3292364 C39.970875,36.1250774 40.390875,35.9732669 40.729875,36.0398242 L40.498125,36.3292364 L40.840125,36.3292364 C40.983375,36.285862 41.130375,36.2454789 41.287125,36.2065914 C41.932875,36.0398242 42.681375,35.8827788 43.354125,35.5679402 C43.658625,35.2942325 44.044125,35.1446654 44.440125,35.0100551 L44.440125,34.7849567 C43.964625,34.9554631 43.500375,35.1199869 43.036875,35.2860063" id="Fill-22" fill="#002185"></path>
                <path d="M9.647175,12.7027289 C10.301925,12.3946208 10.581675,12.0468775 11.201925,11.8666492 C11.499675,11.8352401 11.561925,11.5899501 11.797425,11.8015875 L13.930425,10.587851 L14.087925,10.7306875 C14.711175,10.5482157 13.877925,10.3986486 14.660925,10.356022 C14.839425,9.64408292 15.992925,9.33073996 16.955925,9.01216216 C17.311425,8.8940042 17.639925,8.77135922 17.882925,8.6307662 C18.923175,9.11311992 18.443925,7.9382708 19.034175,7.87620047 C20.768925,7.49779585 21.727425,6.7215429 23.412675,6.14870113 C23.602425,6.16889268 24.332175,5.93108108 23.991675,5.77179218 L24.799425,5.60502493 L24.724425,5.53547625 C24.861675,5.36347415 25.218675,5.08976647 25.562925,5.24905537 C25.781175,5.14660194 26.405175,4.96113881 26.061675,4.80035424 C25.843425,4.90505117 26.277675,4.69939648 26.277675,4.69939648 L26.575425,4.6679874 C27.309675,4.43167148 29.816175,3.26056153 28.861425,3.59633954 C28.565925,3.62700079 28.068675,4.07719759 27.972675,3.69056678 L28.954425,3.23139596 L28.609425,3.07135922 C28.799925,3.08855943 28.937175,2.91655733 29.123925,2.93525321 C29.360925,3.14689058 30.312675,2.8118604 30.560175,2.58750984 L29.856675,2.70043296 C29.728425,2.43869063 30.184425,2.55011808 30.290925,2.49776961 C30.539925,2.27341905 30.162675,2.23303595 30.227175,1.99073734 L29.711925,2.12459984 C29.987175,1.77685647 30.863925,1.36928628 31.237425,1.40892154 C31.862925,1.22570192 32.730675,0.818131724 32.476425,0.291655733 C33.281175,0.562372081 33.054675,-0.0852532144 33.696675,0.0411309368 C33.725175,0.0254263973 33.750675,0.0134610338 33.777675,-1.42108547e-14 L14.277675,-1.42108547e-14 C14.159925,0.0538441354 14.039175,0.1061926 13.924425,0.160036736 C13.100175,0.760548412 11.725425,0.865993178 10.874925,1.58765416 C9.574425,1.72525584 8.844675,2.25696668 8.003925,2.77596431 L8.003925,13.5335739 C8.578425,13.2523878 9.137175,12.979428 9.647175,12.7027289" id="Fill-23" fill="#002185"></path>
                <path d="M42.274425,2.78000262 C41.146425,2.66334033 40.183425,3.43809761 38.949675,3.37079244 C38.961675,2.93555235 40.037175,2.86151666 40.321425,2.51526896 L38.588175,2.89591708 C38.528925,3.13971136 38.196675,3.29301758 38.546175,3.45305432 C38.312925,3.99149567 37.693425,4.1769588 36.750675,4.07749672 C36.811425,3.83370244 37.138425,3.68189189 37.249425,3.62954343 C37.171425,3.55924692 36.595425,3.93765154 36.383925,3.60187352 C35.015175,4.10666229 33.615675,4.53068486 32.211675,5.04444765 C31.451925,5.32264235 30.686925,5.62775912 29.921175,5.98298084 L30.296925,6.02560745 C30.266175,6.14675676 30.610425,6.30454999 30.209925,6.3898032 L29.705175,6.08543427 C29.407425,6.11908685 29.267175,6.29183679 29.208675,6.53563107 C27.365175,6.96713199 25.459425,7.64167935 23.939175,8.35511414 C23.111175,8.95712149 21.739425,9.06480976 20.886675,9.78497507 C19.402425,9.94202047 18.660675,10.6173157 17.643675,11.1953923 L17.270175,11.155757 C16.574175,12.0195067 14.746425,12.0157675 14.075925,12.7598636 C12.427425,13.2093125 11.135925,14.1381239 9.905175,14.8179061 C9.240675,14.8208974 8.588175,15.0310391 8.003925,15.2987641 L8.003925,26.8356179 C8.105175,26.8288874 8.208675,26.8356179 8.305425,26.8595487 L8.204925,26.6942771 C8.309925,26.6434243 8.418675,26.5910758 8.606925,26.6097717 L8.549175,26.8558095 L9.437175,26.7623301 L9.499425,26.5162923 C9.499425,26.5162923 9.606675,26.4646917 9.417675,26.4459958 C9.780675,26.1722881 11.425425,24.8882551 12.018675,24.8254369 L12.049425,25.0236132 C12.533925,25.0116479 12.130425,24.7775754 12.539175,24.6960614 C12.769425,24.9047074 13.124175,24.7798189 13.369425,24.5577119 C13.134675,24.3415875 13.152675,24.3049436 13.369425,24.2017423 C13.508925,24.0289924 13.657425,24.0611493 13.736175,24.1336893 C14.399925,23.3880976 18.209925,21.6852768 19.659675,20.899302 C20.315925,20.5926896 20.594175,20.2449462 21.219675,20.0617266 C21.512925,20.0310653 21.575175,19.7895146 21.805425,19.9989084 L23.941425,18.7851719 L24.102675,18.9265127 C24.722175,18.7432931 23.892675,18.5929782 24.674925,18.5510994 C24.916425,17.5766702 26.993925,17.3568066 27.896925,16.828835 C28.931175,17.3089452 28.458675,16.1355917 29.044425,16.0750171 C30.782175,15.6943689 31.744425,14.9203595 33.426675,14.3452742 C33.615675,14.3662136 34.349925,14.1298977 34.006425,13.9683653 L34.813425,13.8045893 L34.735425,13.7305537 C34.871925,13.5615429 35.227425,13.2848439 35.576925,13.4471241 C35.792925,13.3446707 36.417675,13.1607032 36.073425,12.9969273 C35.856675,13.1016242 35.144175,12.9685096 35.536425,12.7778116 C35.891925,12.6065573 36.261675,12.489895 36.569925,12.5512175 L36.290925,12.8952217 L36.587175,12.8645605 C37.043175,12.7194805 37.600425,12.6073052 38.165175,12.4472684 C38.511675,12.3478064 39.830175,11.4556389 38.878425,11.7944083 C38.579925,11.8258174 38.084925,12.2745185 37.989675,11.8878877 L38.968425,11.427969 L38.622675,11.2671845 C38.809425,11.2858803 38.949675,11.1146261 39.140175,11.1325741 C39.375675,11.346455 40.322175,11.0091813 40.573425,10.7833351 L39.871425,10.8992495 C39.743925,10.6360115 40.198425,10.7459433 40.304925,10.6950905 C40.553925,10.4714878 40.176675,10.4311047 40.241175,10.1880583 L39.725175,10.3204251 C40.001175,9.97716872 40.871925,9.56959853 41.249925,9.60624246 C41.877675,9.42227499 42.746925,9.0147048 42.489675,8.48748098 C43.294425,8.75969299 43.068675,8.11131986 43.711425,8.23919969 C43.956675,8.09860666 44.197425,8.01634479 44.440425,7.96474416 L44.440425,1.83548675 L44.346675,1.81305169 C43.615425,2.04861978 42.318675,2.2251089 42.274425,2.78000262" id="Fill-24" fill="#002185"></path>
            </g>
        </g>
    </g>
</svg>